<svg width="26" height="29" viewBox="0 0 26 29" fill="none" xmlns="http://www.w3.org/2000/svg">
<g filter="url(#filter0_d_4721_14926)">
<path d="M8.02901 21H4.29726V8.31495H8.02901V21ZM6.16112 6.5846C4.96809 6.5846 4 5.54129 4 4.2817C4 3.0221 4.96809 2 6.16112 2C7.35416 2 8.32225 3.0221 8.32225 4.2817C8.32225 5.54129 7.35416 6.5846 6.16112 6.5846ZM21.996 21H18.2723V14.825C18.2723 13.3533 18.2441 11.4661 16.3321 11.4661C14.3919 11.4661 14.0946 13.065 14.0946 14.719V21H10.3669V8.31495H13.946V10.0453H13.9982C14.4963 9.04866 15.7135 7.99687 17.5291 7.99687C21.3051 7.99687 22 10.6221 22 14.0319V21H21.996Z" fill="#363636"/>
</g>
<defs>
<filter id="filter0_d_4721_14926" x="-3" y="0" width="32" height="32" filterUnits="userSpaceOnUse" color-interpolation-filters="sRGB">
<feFlood flood-opacity="0" result="BackgroundImageFix"/>
<feColorMatrix in="SourceAlpha" type="matrix" values="0 0 0 0 0 0 0 0 0 0 0 0 0 0 0 0 0 0 127 0" result="hardAlpha"/>
<feOffset dy="4"/>
<feGaussianBlur stdDeviation="2"/>
<feComposite in2="hardAlpha" operator="out"/>
<feColorMatrix type="matrix" values="0 0 0 0 0 0 0 0 0 0 0 0 0 0 0 0 0 0 0.25 0"/>
<feBlend mode="normal" in2="BackgroundImageFix" result="effect1_dropShadow_4721_14926"/>
<feBlend mode="normal" in="SourceGraphic" in2="effect1_dropShadow_4721_14926" result="shape"/>
</filter>
</defs>
</svg>
