<svg width="499" height="128" viewBox="0 0 499 128" fill="none" xmlns="http://www.w3.org/2000/svg">
<g filter="url(#filter0_d_4_3367)">
<path d="M4 21C4 9.40202 13.402 0 25.0001 0H103C114.598 0 124 9.40202 124 21V99C124 110.598 114.598 120 103 120H25.0001C13.4021 120 4 110.598 4 99V21Z" fill="#6E76F1"/>
<path fill-rule="evenodd" clip-rule="evenodd" d="M101.612 41.1262H89.6456C83.8216 33.4003 74.5093 28.3937 64.0263 28.3937C46.3976 28.3937 32.0865 42.5486 32.0865 59.9815C32.0865 77.4159 46.3976 91.5694 64.0263 91.5694C74.5093 91.5694 83.8216 86.5628 89.6456 78.8383H101.612C94.6487 92.3766 80.425 101.66 64.0263 101.66C40.7669 101.66 21.8842 82.9856 21.8842 59.9815C21.8842 36.9789 40.7669 18.3042 64.0263 18.3042C80.425 18.3042 94.6487 27.5879 101.612 41.1262ZM74.0551 61.8428C73.1707 66.5249 69.0139 70.0724 64.0263 70.0724C58.3941 70.0724 53.8226 65.5512 53.8226 59.9815C53.8226 54.4133 58.3941 49.8921 64.0263 49.8921C69.0139 49.8921 73.1707 53.4396 74.0551 58.1217H124V61.8428H74.0551Z" fill="white"/>
<path d="M171.169 84C166.791 84 162.826 83.0417 159.275 81.125C155.764 79.1667 152.997 76.4792 150.974 73.0625C148.991 69.6458 148 65.7917 148 61.5C148 57.2083 149.012 53.3542 151.035 49.9375C153.059 46.5208 155.826 43.8542 159.337 41.9375C162.888 39.9792 166.853 39 171.231 39C174.782 39 178.024 39.625 180.956 40.875C183.889 42.125 186.367 43.9375 188.39 46.3125L183.187 51.25C180.048 47.8333 176.186 46.125 171.602 46.125C168.629 46.125 165.965 46.7917 163.611 48.125C161.257 49.4167 159.419 51.2292 158.098 53.5625C156.776 55.8958 156.115 58.5417 156.115 61.5C156.115 64.4583 156.776 67.1042 158.098 69.4375C159.419 71.7708 161.257 73.6042 163.611 74.9375C165.965 76.2292 168.629 76.875 171.602 76.875C176.186 76.875 180.048 75.1458 183.187 71.6875L188.39 76.6875C186.367 79.0625 183.868 80.875 180.895 82.125C177.962 83.375 174.72 84 171.169 84Z" fill="#363636"/>
<path d="M195.363 37H203.107V83.375H195.363V37Z" fill="#363636"/>
<path d="M244.368 66.875C244.368 67.4167 244.327 68.1875 244.244 69.1875H218.288C218.742 71.6458 219.919 73.6042 221.819 75.0625C223.76 76.4792 226.155 77.1875 229.005 77.1875C232.639 77.1875 235.634 75.9792 237.988 73.5625L242.138 78.375C240.651 80.1667 238.772 81.5208 236.501 82.4375C234.229 83.3542 231.669 83.8125 228.819 83.8125C225.185 83.8125 221.984 83.0833 219.217 81.625C216.45 80.1667 214.303 78.1458 212.775 75.5625C211.288 72.9375 210.545 69.9792 210.545 66.6875C210.545 63.4375 211.267 60.5208 212.713 57.9375C214.199 55.3125 216.244 53.2708 218.846 51.8125C221.447 50.3542 224.38 49.625 227.642 49.625C230.864 49.625 233.734 50.3542 236.253 51.8125C238.814 53.2292 240.796 55.25 242.2 57.875C243.646 60.4583 244.368 63.4583 244.368 66.875ZM227.642 55.875C225.164 55.875 223.058 56.625 221.324 58.125C219.63 59.5833 218.598 61.5417 218.226 64H236.996C236.666 61.5833 235.654 59.625 233.961 58.125C232.268 56.625 230.161 55.875 227.642 55.875Z" fill="#363636"/>
<path d="M282.176 50L267.989 83.375H259.998L245.812 50H253.865L264.149 74.75L274.742 50H282.176Z" fill="#363636"/>
<path d="M317.206 66.875C317.206 67.4167 317.165 68.1875 317.082 69.1875H291.126C291.58 71.6458 292.757 73.6042 294.657 75.0625C296.598 76.4792 298.993 77.1875 301.843 77.1875C305.477 77.1875 308.471 75.9792 310.825 73.5625L314.976 78.375C313.489 80.1667 311.61 81.5208 309.338 82.4375C307.067 83.3542 304.506 83.8125 301.657 83.8125C298.023 83.8125 294.822 83.0833 292.055 81.625C289.288 80.1667 287.14 78.1458 285.612 75.5625C284.126 72.9375 283.382 69.9792 283.382 66.6875C283.382 63.4375 284.105 60.5208 285.55 57.9375C287.037 55.3125 289.081 53.2708 291.683 51.8125C294.285 50.3542 297.217 49.625 300.48 49.625C303.701 49.625 306.571 50.3542 309.091 51.8125C311.651 53.2292 313.634 55.25 315.038 57.875C316.483 60.4583 317.206 63.4583 317.206 66.875ZM300.48 55.875C298.002 55.875 295.896 56.625 294.161 58.125C292.468 59.5833 291.435 61.5417 291.064 64H309.834C309.504 61.5833 308.492 59.625 306.799 58.125C305.105 56.625 302.999 55.875 300.48 55.875Z" fill="#363636"/>
<path d="M332.016 54.875C334.246 51.375 338.169 49.625 343.786 49.625V57.0625C343.125 56.9375 342.526 56.875 341.99 56.875C338.975 56.875 336.621 57.7708 334.927 59.5625C333.234 61.3125 332.388 63.8542 332.388 67.1875V83.375H324.644V50H332.016V54.875Z" fill="#363636"/>
<path d="M350.355 37H358.099V83.375H350.355V37Z" fill="#363636"/>
<path d="M380.899 49.625C385.773 49.625 389.489 50.8125 392.05 53.1875C394.652 55.5208 395.953 59.0625 395.953 63.8125V83.375H388.643V79.3125C387.693 80.7708 386.33 81.8958 384.554 82.6875C382.82 83.4375 380.713 83.8125 378.236 83.8125C375.758 83.8125 373.589 83.3958 371.731 82.5625C369.873 81.6875 368.427 80.5 367.395 79C366.403 77.4583 365.908 75.7292 365.908 73.8125C365.908 70.8125 367.002 68.4167 369.191 66.625C371.421 64.7917 374.911 63.875 379.66 63.875H388.209V63.375C388.209 61.0417 387.507 59.25 386.103 58C384.74 56.75 382.696 56.125 379.97 56.125C378.112 56.125 376.274 56.4167 374.457 57C372.681 57.5833 371.173 58.3958 369.934 59.4375L366.899 53.75C368.634 52.4167 370.719 51.3958 373.156 50.6875C375.592 49.9792 378.174 49.625 380.899 49.625ZM379.846 78.125C381.787 78.125 383.501 77.6875 384.988 76.8125C386.516 75.8958 387.59 74.6042 388.209 72.9375V69.0625H380.218C375.758 69.0625 373.527 70.5417 373.527 73.5C373.527 74.9167 374.085 76.0417 375.2 76.875C376.315 77.7083 377.864 78.125 379.846 78.125Z" fill="#363636"/>
<path d="M424.661 49.625C428.832 49.625 432.177 50.8542 434.697 53.3125C437.216 55.7708 438.475 59.4167 438.475 64.25V83.375H430.732V65.25C430.732 62.3333 430.05 60.1458 428.688 58.6875C427.325 57.1875 425.384 56.4375 422.864 56.4375C420.015 56.4375 417.764 57.3125 416.112 59.0625C414.46 60.7708 413.634 63.25 413.634 66.5V83.375H405.891V50H413.262V54.3125C414.543 52.7708 416.153 51.6042 418.094 50.8125C420.035 50.0208 422.224 49.625 424.661 49.625Z" fill="#363636"/>
<path d="M481 37V83.375H473.566V79.0625C472.286 80.6458 470.696 81.8333 468.796 82.625C466.938 83.4167 464.873 83.8125 462.601 83.8125C459.421 83.8125 456.551 83.1042 453.991 81.6875C451.471 80.2708 449.489 78.2708 448.044 75.6875C446.598 73.0625 445.875 70.0625 445.875 66.6875C445.875 63.3125 446.598 60.3333 448.044 57.75C449.489 55.1667 451.471 53.1667 453.991 51.75C456.551 50.3333 459.421 49.625 462.601 49.625C464.79 49.625 466.793 50 468.61 50.75C470.427 51.5 471.976 52.625 473.256 54.125V37H481ZM463.531 77.125C465.389 77.125 467.062 76.7083 468.548 75.875C470.035 75 471.212 73.7708 472.079 72.1875C472.947 70.6042 473.38 68.7708 473.38 66.6875C473.38 64.6042 472.947 62.7708 472.079 61.1875C471.212 59.6042 470.035 58.3958 468.548 57.5625C467.062 56.6875 465.389 56.25 463.531 56.25C461.672 56.25 460 56.6875 458.513 57.5625C457.026 58.3958 455.849 59.6042 454.982 61.1875C454.114 62.7708 453.681 64.6042 453.681 66.6875C453.681 68.7708 454.114 70.6042 454.982 72.1875C455.849 73.7708 457.026 75 458.513 75.875C460 76.7083 461.672 77.125 463.531 77.125Z" fill="#363636"/>
</g>
<defs>
<filter id="filter0_d_4_3367" x="0" y="0" width="503" height="128" filterUnits="userSpaceOnUse" color-interpolation-filters="sRGB">
<feFlood flood-opacity="0" result="BackgroundImageFix"/>
<feColorMatrix in="SourceAlpha" type="matrix" values="0 0 0 0 0 0 0 0 0 0 0 0 0 0 0 0 0 0 127 0" result="hardAlpha"/>
<feOffset dy="4"/>
<feGaussianBlur stdDeviation="2"/>
<feComposite in2="hardAlpha" operator="out"/>
<feColorMatrix type="matrix" values="0 0 0 0 0 0 0 0 0 0 0 0 0 0 0 0 0 0 0.25 0"/>
<feBlend mode="normal" in2="BackgroundImageFix" result="effect1_dropShadow_4_3367"/>
<feBlend mode="normal" in="SourceGraphic" in2="effect1_dropShadow_4_3367" result="shape"/>
</filter>
</defs>
</svg>
